<svg xmlns="http://www.w3.org/2000/svg" viewBox="0 0 512 512" role="img" aria-label="JL Tours Boston">
  <rect width="512" height="512" rx="112" fill="#10243E"/>
  <path transform="translate(104.01 336.76) scale(0.5988)" d="M227.734-277.148L227.734-261.914Q219.922-260.937 214.453-259.961Q208.984-258.984 202.148-257.227Q194.141-255.078 191.895-249.609Q189.648-244.141 189.648-237.109L189.648-84.375Q189.648-63.281 181.152-45.703Q172.656-28.125 157.813-16.211Q142.773-4.492 124.219 1.465Q105.664 7.422 84.570 7.422Q48.047 7.422 25.684-10.156Q3.320-27.734 3.320-58.398Q3.320-76.562 13.574-88.477Q23.828-100.391 41.797-100.391Q58.789-100.391 68.848-90.430Q78.906-80.469 78.906-65.820Q78.906-53.320 70.215-42.676Q61.523-32.031 50.391-23.047L50.391-20.508Q52.148-16.602 58.008-13.867Q63.867-11.133 69.922-11.133Q93.359-11.133 106.738-27.930Q120.117-44.727 120.117-78.711L120.117-235.156Q120.117-242.187 117.969-246.875Q115.820-251.562 107.617-255.078Q101.758-257.617 93.457-259.375Q85.156-261.133 79.688-261.914L79.688-277.148L227.734-277.148M490.047-88.867L504.305-88.867L498.836 0L243.563 0L243.563-15.234Q250.398-15.820 259.578-17.090Q268.758-18.359 271.688-19.531Q278.719-22.266 281.453-27.148Q284.188-32.031 284.188-39.648L284.188-235.156Q284.188-242.187 282.039-246.777Q279.891-251.367 271.688-255.078Q265.633-257.812 257.137-259.473Q248.641-261.133 243.563-261.914L243.563-277.148L395.711-277.148L395.711-261.914Q389.461-261.328 380.965-260.254Q372.469-259.180 366.219-257.227Q358.602-254.687 356.063-249.316Q353.523-243.945 353.523-237.109L353.523-54.883Q353.523-41.992 355.281-34.570Q357.039-27.148 362.117-23.633Q367.195-19.922 376.277-18.848Q385.359-17.773 401.375-17.773Q417-17.773 431.746-19.629Q446.492-21.484 452.938-27.734Q462.898-37.695 473.348-55.762Q483.797-73.828 490.047-88.867" fill="#F2A541"/>
</svg>
